<svg width="160" height="16" viewBox="0 0 160 16" fill="none" xmlns="http://www.w3.org/2000/svg">
<g id="logo / movierating">
<g id="MovieRating">
<path d="M0 0.212928H5.50421L9.29035 9.03422H9.48125L13.2674 0.212928H18.7716V15.7871H14.4446V6.78327H14.3173L10.6903 15.6654H8.08133L4.45428 6.72243H4.32701V15.7871H0V0.212928Z" fill="url(#paint0_linear_14_174)"/>
<path d="M36.6484 8C36.6484 9.73384 36.2957 11.1965 35.5905 12.3878C34.8852 13.5741 33.9334 14.474 32.735 15.0875C31.5365 15.6958 30.2003 16 28.7261 16C27.2413 16 25.8998 15.6933 24.7013 15.0798C23.5082 14.4613 22.5591 13.5589 21.8538 12.3726C21.1538 11.1812 20.8039 9.7237 20.8039 8C20.8039 6.26616 21.1538 4.80608 21.8538 3.61977C22.5591 2.42839 23.5082 1.52852 24.7013 0.920152C25.8998 0.306717 27.2413 0 28.7261 0C30.2003 0 31.5365 0.306717 32.735 0.920152C33.9334 1.52852 34.8852 2.42839 35.5905 3.61977C36.2957 4.80608 36.6484 6.26616 36.6484 8ZM32.0986 8C32.0986 7.06717 31.9687 6.28137 31.7089 5.64259C31.4543 4.99873 31.0752 4.51204 30.5715 4.18251C30.073 3.84791 29.4579 3.68061 28.7261 3.68061C27.9943 3.68061 27.3766 3.84791 26.8728 4.18251C26.3744 4.51204 25.9952 4.99873 25.7354 5.64259C25.4808 6.28137 25.3536 7.06717 25.3536 8C25.3536 8.93283 25.4808 9.72116 25.7354 10.365C25.9952 11.0038 26.3744 11.4905 26.8728 11.8251C27.3766 12.1546 27.9943 12.3194 28.7261 12.3194C29.4579 12.3194 30.073 12.1546 30.5715 11.8251C31.0752 11.4905 31.4543 11.0038 31.7089 10.365C31.9687 9.72116 32.0986 8.93283 32.0986 8Z" fill="url(#paint1_linear_14_174)"/>
<path d="M42.1208 0.212928L45.4615 11.1939H45.5887L48.9294 0.212928H53.9246L48.5476 15.7871H42.5025L37.1256 0.212928H42.1208Z" fill="url(#paint2_linear_14_174)"/>
<path d="M59.916 0.212928V15.7871H55.4935V0.212928H59.916Z" fill="url(#paint3_linear_14_174)"/>
<path d="M62.0119 15.7871V0.212928H73.7521V3.61977H66.4343V6.29658H73.1476V9.70342H66.4343V12.3802H73.7203V15.7871H62.0119Z" fill="url(#paint4_linear_14_174)"/>
<path d="M75.9454 15.7871V0.212928H82.9768C84.1858 0.212928 85.2437 0.423321 86.1505 0.844107C87.0572 1.26489 87.7625 1.87072 88.2663 2.6616C88.77 3.45247 89.0219 4.40051 89.0219 5.5057C89.0219 6.62104 88.7621 7.56147 88.2424 8.32699C87.728 9.09252 87.0042 9.67047 86.0709 10.0608C85.143 10.4512 84.0586 10.6464 82.8177 10.6464H78.618V7.36122H81.9269C82.4465 7.36122 82.8893 7.30038 83.2552 7.17871C83.6264 7.05196 83.9101 6.85171 84.1063 6.57795C84.3078 6.30418 84.4085 5.94677 84.4085 5.5057C84.4085 5.05957 84.3078 4.69709 84.1063 4.41825C83.9101 4.13435 83.6264 3.92649 83.2552 3.79468C82.8893 3.65779 82.4465 3.58935 81.9269 3.58935H80.3679V15.7871H75.9454ZM85.4903 8.63878L89.5628 15.7871H84.7585L80.7815 8.63878H85.4903Z" fill="url(#paint5_linear_14_174)"/>
<path d="M95.1386 15.7871H90.3661L95.7431 0.212928H101.788L107.165 15.7871H102.393L98.8293 4.5019H98.702L95.1386 15.7871ZM94.2477 9.64258H103.22V12.8061H94.2477V9.64258Z" fill="url(#paint6_linear_14_174)"/>
<path d="M106.232 3.61977V0.212928H120.391V3.61977H115.491V15.7871H111.132V3.61977H106.232Z" fill="url(#paint7_linear_14_174)"/>
<path d="M126.478 0.212928V15.7871H122.055V0.212928H126.478Z" fill="url(#paint8_linear_14_174)"/>
<path d="M142.668 0.212928V15.7871H138.977L133.091 7.60456H132.996V15.7871H128.573V0.212928H132.328L138.118 8.36502H138.246V0.212928H142.668Z" fill="url(#paint9_linear_14_174)"/>
<path d="M155.339 5.35361C155.27 5.08492 155.161 4.84918 155.013 4.64639C154.864 4.43853 154.679 4.26363 154.456 4.12167C154.239 3.97465 153.984 3.86565 153.692 3.79468C153.406 3.71863 153.091 3.68061 152.746 3.68061C152.004 3.68061 151.37 3.85044 150.845 4.19011C150.325 4.52978 149.927 5.01901 149.652 5.65779C149.381 6.29658 149.246 7.06717 149.246 7.96958C149.246 8.88213 149.376 9.66286 149.636 10.3118C149.896 10.9607 150.283 11.4575 150.797 11.8023C151.312 12.147 151.95 12.3194 152.714 12.3194C153.388 12.3194 153.947 12.2256 154.392 12.038C154.843 11.8504 155.18 11.5843 155.403 11.2395C155.625 10.8948 155.737 10.4892 155.737 10.0228L156.5 10.0989H152.778V7.08745H160V9.24715C160 10.6667 159.684 11.8809 159.053 12.8897C158.428 13.8935 157.563 14.6641 156.46 15.2015C155.363 15.7338 154.103 16 152.682 16C151.097 16 149.705 15.6781 148.506 15.0342C147.308 14.3904 146.372 13.4727 145.699 12.2814C145.03 11.09 144.696 9.673 144.696 8.03042C144.696 6.74271 144.901 5.60203 145.309 4.60836C145.722 3.6147 146.295 2.77567 147.027 2.09125C147.759 1.40177 148.604 0.882129 149.564 0.532319C150.524 0.17744 151.553 0 152.65 0C153.616 0 154.512 0.131813 155.339 0.395438C156.171 0.653992 156.906 1.02408 157.542 1.5057C158.184 1.98226 158.701 2.54753 159.093 3.20152C159.486 3.85551 159.724 4.57288 159.809 5.35361H155.339Z" fill="url(#paint10_linear_14_174)"/>
</g>
</g>
<defs>
<linearGradient id="paint0_linear_14_174" x1="0" y1="0" x2="160" y2="16" gradientUnits="userSpaceOnUse">
<stop stop-color="#46D3FF"/>
<stop offset="1" stop-color="#E751FF"/>
</linearGradient>
<linearGradient id="paint1_linear_14_174" x1="0" y1="0" x2="160" y2="16" gradientUnits="userSpaceOnUse">
<stop stop-color="#46D3FF"/>
<stop offset="1" stop-color="#E751FF"/>
</linearGradient>
<linearGradient id="paint2_linear_14_174" x1="0" y1="0" x2="160" y2="16" gradientUnits="userSpaceOnUse">
<stop stop-color="#46D3FF"/>
<stop offset="1" stop-color="#E751FF"/>
</linearGradient>
<linearGradient id="paint3_linear_14_174" x1="0" y1="0" x2="160" y2="16" gradientUnits="userSpaceOnUse">
<stop stop-color="#46D3FF"/>
<stop offset="1" stop-color="#E751FF"/>
</linearGradient>
<linearGradient id="paint4_linear_14_174" x1="0" y1="0" x2="160" y2="16" gradientUnits="userSpaceOnUse">
<stop stop-color="#46D3FF"/>
<stop offset="1" stop-color="#E751FF"/>
</linearGradient>
<linearGradient id="paint5_linear_14_174" x1="0" y1="0" x2="160" y2="16" gradientUnits="userSpaceOnUse">
<stop stop-color="#46D3FF"/>
<stop offset="1" stop-color="#E751FF"/>
</linearGradient>
<linearGradient id="paint6_linear_14_174" x1="0" y1="0" x2="160" y2="16" gradientUnits="userSpaceOnUse">
<stop stop-color="#46D3FF"/>
<stop offset="1" stop-color="#E751FF"/>
</linearGradient>
<linearGradient id="paint7_linear_14_174" x1="0" y1="0" x2="160" y2="16" gradientUnits="userSpaceOnUse">
<stop stop-color="#46D3FF"/>
<stop offset="1" stop-color="#E751FF"/>
</linearGradient>
<linearGradient id="paint8_linear_14_174" x1="0" y1="0" x2="160" y2="16" gradientUnits="userSpaceOnUse">
<stop stop-color="#46D3FF"/>
<stop offset="1" stop-color="#E751FF"/>
</linearGradient>
<linearGradient id="paint9_linear_14_174" x1="0" y1="0" x2="160" y2="16" gradientUnits="userSpaceOnUse">
<stop stop-color="#46D3FF"/>
<stop offset="1" stop-color="#E751FF"/>
</linearGradient>
<linearGradient id="paint10_linear_14_174" x1="0" y1="0" x2="160" y2="16" gradientUnits="userSpaceOnUse">
<stop stop-color="#46D3FF"/>
<stop offset="1" stop-color="#E751FF"/>
</linearGradient>
</defs>
</svg>
