<svg width="48" height="76" viewBox="0 0 48 76" fill="none" xmlns="http://www.w3.org/2000/svg">
<g filter="url(#filter0_b_112_109)">
<rect x="2" width="44" height="44" rx="14" fill="#343434" fill-opacity="0.4"/>
<path d="M17 31V15C17 13.8954 17.8954 13 19 13H29C30.1046 13 31 13.8954 31 15V31L25.0815 27.1953C24.4227 26.7717 23.5773 26.7717 22.9185 27.1953L17 31Z" stroke="#A6A6A6" stroke-width="1.5" stroke-linecap="round" stroke-linejoin="round"/>
</g>
<path d="M4.5562 62L2.56756 54.7273H3.46245L4.98233 60.6506H5.05336L6.60165 54.7273H7.59597L9.14427 60.6506H9.21529L10.7352 54.7273H11.6301L9.64142 62H8.73233L7.12722 56.2045H7.0704L5.46529 62H4.5562ZM13.711 62.1278C13.3654 62.1278 13.0517 62.0627 12.77 61.9325C12.4883 61.8 12.2645 61.6094 12.0988 61.3608C11.9331 61.1098 11.8502 60.8068 11.8502 60.4517C11.8502 60.1392 11.9118 59.8859 12.0349 59.6918C12.158 59.4953 12.3225 59.3414 12.5285 59.2301C12.7345 59.1188 12.9617 59.036 13.2103 58.9815C13.4613 58.9247 13.7134 58.8797 13.9667 58.8466C14.2981 58.804 14.5669 58.772 14.7728 58.7507C14.9811 58.727 15.1327 58.688 15.2274 58.6335C15.3244 58.5791 15.373 58.4844 15.373 58.3494V58.321C15.373 57.9706 15.2771 57.6984 15.0853 57.5043C14.8959 57.3101 14.6083 57.2131 14.2224 57.2131C13.8223 57.2131 13.5086 57.3007 13.2813 57.4759C13.0541 57.651 12.8943 57.8381 12.8019 58.0369L12.0065 57.7528C12.1485 57.4214 12.3379 57.1634 12.5747 56.9787C12.8138 56.7917 13.0742 56.6615 13.3559 56.5881C13.64 56.5123 13.9194 56.4744 14.194 56.4744C14.3692 56.4744 14.5704 56.4957 14.7977 56.5384C15.0273 56.5786 15.2487 56.6626 15.4617 56.7905C15.6772 56.9183 15.8559 57.1113 15.998 57.3693C16.14 57.6274 16.211 57.973 16.211 58.4062V62H15.373V61.2614H15.3303C15.2735 61.3797 15.1788 61.5064 15.0463 61.6413C14.9137 61.7763 14.7373 61.8911 14.5171 61.9858C14.297 62.0805 14.0283 62.1278 13.711 62.1278ZM13.8389 61.375C14.1703 61.375 14.4497 61.3099 14.6769 61.1797C14.9066 61.0495 15.0794 60.8814 15.1954 60.6754C15.3138 60.4695 15.373 60.2528 15.373 60.0256V59.2585C15.3374 59.3011 15.2593 59.3402 15.1386 59.3757C15.0202 59.4089 14.8829 59.4384 14.7267 59.4645C14.5728 59.4882 14.4224 59.5095 14.2757 59.5284C14.1312 59.545 14.0141 59.5592 13.9241 59.571C13.7063 59.5994 13.5027 59.6456 13.3133 59.7095C13.1263 59.7711 12.9748 59.8646 12.8588 59.9901C12.7451 60.1132 12.6883 60.2812 12.6883 60.4943C12.6883 60.7855 12.796 61.0057 13.0115 61.1548C13.2293 61.3016 13.5051 61.375 13.8389 61.375ZM20.1128 56.5455V57.2557H17.2861V56.5455H20.1128ZM18.11 55.2386H18.9481V60.4375C18.9481 60.6742 18.9824 60.8518 19.051 60.9702C19.1221 61.0862 19.212 61.1643 19.3209 61.2045C19.4322 61.2424 19.5494 61.2614 19.6725 61.2614C19.7648 61.2614 19.8406 61.2566 19.8998 61.2472C19.959 61.2353 20.0063 61.2259 20.0418 61.2188L20.2123 61.9716C20.1555 61.9929 20.0761 62.0142 19.9743 62.0355C19.8725 62.0592 19.7435 62.071 19.5873 62.071C19.3505 62.071 19.1185 62.0201 18.8912 61.9183C18.6663 61.8165 18.4793 61.6615 18.3302 61.4531C18.1834 61.2448 18.11 60.982 18.11 60.6648V55.2386ZM23.5308 62.1136C23.0194 62.1136 22.5791 61.9929 22.2098 61.7514C21.8405 61.5099 21.5564 61.1773 21.3575 60.7536C21.1586 60.3298 21.0592 59.8456 21.0592 59.3011C21.0592 58.7472 21.161 58.2583 21.3646 57.8345C21.5706 57.4084 21.857 57.0758 22.224 56.8366C22.5933 56.5952 23.0242 56.4744 23.5166 56.4744C23.9001 56.4744 24.2458 56.5455 24.5535 56.6875C24.8613 56.8295 25.1134 57.0284 25.3099 57.2841C25.5064 57.5398 25.6283 57.8381 25.6757 58.179H24.8376C24.7737 57.9304 24.6317 57.7102 24.4115 57.5185C24.1937 57.3243 23.9001 57.2273 23.5308 57.2273C23.2041 57.2273 22.9176 57.3125 22.6714 57.483C22.4276 57.651 22.237 57.889 22.0997 58.1967C21.9648 58.5021 21.8973 58.8608 21.8973 59.2727C21.8973 59.6941 21.9636 60.0611 22.0961 60.3736C22.2311 60.6861 22.4205 60.9287 22.6643 61.1016C22.9105 61.2744 23.1994 61.3608 23.5308 61.3608C23.7486 61.3608 23.9463 61.3229 24.1238 61.2472C24.3014 61.1714 24.4517 61.0625 24.5748 60.9205C24.6979 60.7784 24.7855 60.608 24.8376 60.4091H25.6757C25.6283 60.7311 25.5112 61.0211 25.3241 61.2791C25.1395 61.5348 24.8944 61.7384 24.589 61.8899C24.286 62.0391 23.9333 62.1136 23.5308 62.1136ZM27.7389 58.7188V62H26.9008V54.7273H27.7389V57.3977H27.8099C27.9378 57.116 28.1295 56.8923 28.3852 56.7266C28.6433 56.5585 28.9865 56.4744 29.415 56.4744C29.7867 56.4744 30.1122 56.549 30.3916 56.6982C30.671 56.8449 30.8876 57.071 31.0415 57.3764C31.1977 57.6795 31.2758 58.0653 31.2758 58.5341V62H30.4378V58.5909C30.4378 58.1577 30.3253 57.8227 30.1004 57.5859C29.8779 57.3468 29.5689 57.2273 29.1736 57.2273C28.8989 57.2273 28.6527 57.2853 28.4349 57.4013C28.2195 57.5173 28.049 57.6866 27.9236 57.9091C27.8005 58.1316 27.7389 58.4015 27.7389 58.7188ZM33.6471 54.7273V62H32.809V54.7273H33.6471ZM35.1821 62V56.5455H36.0202V62H35.1821ZM35.6082 55.6364C35.4449 55.6364 35.304 55.5807 35.1856 55.4695C35.0696 55.3582 35.0116 55.2244 35.0116 55.0682C35.0116 54.9119 35.0696 54.7782 35.1856 54.6669C35.304 54.5556 35.4449 54.5 35.6082 54.5C35.7716 54.5 35.9113 54.5556 36.0273 54.6669C36.1456 54.7782 36.2048 54.9119 36.2048 55.0682C36.2048 55.2244 36.1456 55.3582 36.0273 55.4695C35.9113 55.5807 35.7716 55.6364 35.6082 55.6364ZM41.4188 57.767L40.6659 57.9801C40.6186 57.8546 40.5487 57.7327 40.4564 57.6143C40.3664 57.4936 40.2433 57.3942 40.0871 57.3161C39.9308 57.2379 39.7308 57.1989 39.4869 57.1989C39.1531 57.1989 38.875 57.2758 38.6524 57.4297C38.4323 57.5812 38.3222 57.7741 38.3222 58.0085C38.3222 58.2169 38.3979 58.3814 38.5494 58.5021C38.701 58.6229 38.9377 58.7235 39.2597 58.804L40.0693 59.0028C40.557 59.1212 40.9204 59.3023 41.1595 59.5462C41.3986 59.7876 41.5182 60.099 41.5182 60.4801C41.5182 60.7926 41.4282 61.072 41.2483 61.3182C41.0708 61.5644 40.8222 61.7585 40.5026 61.9006C40.183 62.0426 39.8113 62.1136 39.3875 62.1136C38.8312 62.1136 38.3707 61.9929 38.0061 61.7514C37.6415 61.5099 37.4107 61.1572 37.3137 60.6932L38.1091 60.4943C38.1849 60.7879 38.3281 61.008 38.5388 61.1548C38.7519 61.3016 39.03 61.375 39.3733 61.375C39.7639 61.375 40.0741 61.2921 40.3037 61.1264C40.5357 60.9583 40.6517 60.7571 40.6517 60.5227C40.6517 60.3333 40.5854 60.1747 40.4529 60.0469C40.3203 59.9167 40.1167 59.8196 39.8421 59.7557L38.933 59.5426C38.4334 59.4242 38.0665 59.2408 37.8321 58.9922C37.6001 58.7412 37.4841 58.4276 37.4841 58.0511C37.4841 57.7434 37.5705 57.4711 37.7433 57.2344C37.9185 56.9976 38.1565 56.8118 38.4571 56.6768C38.7602 56.5419 39.1034 56.4744 39.4869 56.4744C40.0267 56.4744 40.4505 56.5928 40.7583 56.8295C41.0684 57.0663 41.2886 57.3788 41.4188 57.767ZM45.1519 56.5455V57.2557H42.3252V56.5455H45.1519ZM43.1491 55.2386H43.9871V60.4375C43.9871 60.6742 44.0215 60.8518 44.0901 60.9702C44.1611 61.0862 44.2511 61.1643 44.36 61.2045C44.4713 61.2424 44.5885 61.2614 44.7116 61.2614C44.8039 61.2614 44.8796 61.2566 44.9388 61.2472C44.998 61.2353 45.0454 61.2259 45.0809 61.2188L45.2513 61.9716C45.1945 61.9929 45.1152 62.0142 45.0134 62.0355C44.9116 62.0592 44.7826 62.071 44.6263 62.071C44.3896 62.071 44.1576 62.0201 43.9303 61.9183C43.7054 61.8165 43.5184 61.6615 43.3692 61.4531C43.2224 61.2448 43.1491 60.982 43.1491 60.6648V55.2386Z" fill="#A6A6A6"/>
<defs>
<filter id="filter0_b_112_109" x="-23" y="-25" width="94" height="94" filterUnits="userSpaceOnUse" color-interpolation-filters="sRGB">
<feFlood flood-opacity="0" result="BackgroundImageFix"/>
<feGaussianBlur in="BackgroundImageFix" stdDeviation="12.5"/>
<feComposite in2="SourceAlpha" operator="in" result="effect1_backgroundBlur_112_109"/>
<feBlend mode="normal" in="SourceGraphic" in2="effect1_backgroundBlur_112_109" result="shape"/>
</filter>
</defs>
</svg>
