<svg width="48" height="76" viewBox="0 0 48 76" fill="none" xmlns="http://www.w3.org/2000/svg">
<g filter="url(#filter0_b_112_98)">
<rect x="2" width="44" height="44" rx="14" fill="#343434" fill-opacity="0.4"/>
<path d="M15 23C18.6 15 29.4 15 33 23" stroke="#A6A6A6" stroke-width="1.5" stroke-linecap="round" stroke-linejoin="round"/>
<path d="M24 27C22.3431 27 21 25.6569 21 24C21 22.3431 22.3431 21 24 21C25.6569 21 27 22.3431 27 24C27 25.6569 25.6569 27 24 27Z" stroke="#A6A6A6" stroke-width="1.5" stroke-linecap="round" stroke-linejoin="round"/>
</g>
<path d="M4.19975 62L2.21112 54.7273H3.106L4.62589 60.6506H4.69691L6.24521 54.7273H7.23952L8.78782 60.6506H8.85884L10.3787 54.7273H11.2736L9.28498 62H8.37589L6.77077 56.2045H6.71396L5.10884 62H4.19975ZM13.3546 62.1278C13.0089 62.1278 12.6953 62.0627 12.4135 61.9325C12.1318 61.8 11.9081 61.6094 11.7424 61.3608C11.5766 61.1098 11.4938 60.8068 11.4938 60.4517C11.4938 60.1392 11.5553 59.8859 11.6784 59.6918C11.8016 59.4953 11.9661 59.3414 12.1721 59.2301C12.378 59.1188 12.6053 59.036 12.8539 58.9815C13.1048 58.9247 13.3569 58.8797 13.6103 58.8466C13.9417 58.804 14.2104 58.772 14.4164 58.7507C14.6247 58.727 14.7762 58.688 14.8709 58.6335C14.968 58.5791 15.0165 58.4844 15.0165 58.3494V58.321C15.0165 57.9706 14.9206 57.6984 14.7289 57.5043C14.5395 57.3101 14.2518 57.2131 13.8659 57.2131C13.4658 57.2131 13.1522 57.3007 12.9249 57.4759C12.6976 57.651 12.5378 57.8381 12.4455 58.0369L11.65 57.7528C11.7921 57.4214 11.9815 57.1634 12.2182 56.9787C12.4573 56.7917 12.7177 56.6615 12.9995 56.5881C13.2836 56.5123 13.5629 56.4744 13.8375 56.4744C14.0127 56.4744 14.214 56.4957 14.4412 56.5384C14.6709 56.5786 14.8922 56.6626 15.1053 56.7905C15.3207 56.9183 15.4995 57.1113 15.6415 57.3693C15.7836 57.6274 15.8546 57.973 15.8546 58.4062V62H15.0165V61.2614H14.9739C14.9171 61.3797 14.8224 61.5064 14.6898 61.6413C14.5572 61.7763 14.3809 61.8911 14.1607 61.9858C13.9405 62.0805 13.6718 62.1278 13.3546 62.1278ZM13.4824 61.375C13.8139 61.375 14.0932 61.3099 14.3205 61.1797C14.5501 61.0495 14.723 60.8814 14.839 60.6754C14.9573 60.4695 15.0165 60.2528 15.0165 60.0256V59.2585C14.981 59.3011 14.9029 59.3402 14.7821 59.3757C14.6638 59.4089 14.5265 59.4384 14.3702 59.4645C14.2163 59.4882 14.066 59.5095 13.9192 59.5284C13.7748 59.545 13.6576 59.5592 13.5676 59.571C13.3498 59.5994 13.1462 59.6456 12.9569 59.7095C12.7698 59.7711 12.6183 59.8646 12.5023 59.9901C12.3887 60.1132 12.3319 60.2812 12.3319 60.4943C12.3319 60.7855 12.4396 61.0057 12.655 61.1548C12.8728 61.3016 13.1486 61.375 13.4824 61.375ZM19.7564 56.5455V57.2557H16.9297V56.5455H19.7564ZM17.7536 55.2386H18.5916V60.4375C18.5916 60.6742 18.6259 60.8518 18.6946 60.9702C18.7656 61.0862 18.8556 61.1643 18.9645 61.2045C19.0758 61.2424 19.1929 61.2614 19.3161 61.2614C19.4084 61.2614 19.4841 61.2566 19.5433 61.2472C19.6025 61.2353 19.6499 61.2259 19.6854 61.2188L19.8558 61.9716C19.799 61.9929 19.7197 62.0142 19.6179 62.0355C19.5161 62.0592 19.3871 62.071 19.2308 62.071C18.9941 62.071 18.7621 62.0201 18.5348 61.9183C18.3099 61.8165 18.1229 61.6615 17.9737 61.4531C17.8269 61.2448 17.7536 60.982 17.7536 60.6648V55.2386ZM23.1744 62.1136C22.663 62.1136 22.2227 61.9929 21.8533 61.7514C21.484 61.5099 21.1999 61.1773 21.0011 60.7536C20.8022 60.3298 20.7028 59.8456 20.7028 59.3011C20.7028 58.7472 20.8046 58.2583 21.0082 57.8345C21.2141 57.4084 21.5006 57.0758 21.8675 56.8366C22.2369 56.5952 22.6677 56.4744 23.1602 56.4744C23.5437 56.4744 23.8893 56.5455 24.1971 56.6875C24.5049 56.8295 24.757 57.0284 24.9535 57.2841C25.15 57.5398 25.2719 57.8381 25.3192 58.179H24.4812C24.4173 57.9304 24.2752 57.7102 24.055 57.5185C23.8372 57.3243 23.5437 57.2273 23.1744 57.2273C22.8477 57.2273 22.5612 57.3125 22.315 57.483C22.0711 57.651 21.8806 57.889 21.7433 58.1967C21.6083 58.5021 21.5408 58.8608 21.5408 59.2727C21.5408 59.6941 21.6071 60.0611 21.7397 60.3736C21.8746 60.6861 22.064 60.9287 22.3079 61.1016C22.5541 61.2744 22.8429 61.3608 23.1744 61.3608C23.3922 61.3608 23.5898 61.3229 23.7674 61.2472C23.945 61.1714 24.0953 61.0625 24.2184 60.9205C24.3415 60.7784 24.4291 60.608 24.4812 60.4091H25.3192C25.2719 60.7311 25.1547 61.0211 24.9677 61.2791C24.783 61.5348 24.538 61.7384 24.2326 61.8899C23.9296 62.0391 23.5768 62.1136 23.1744 62.1136ZM27.3825 58.7188V62H26.5444V54.7273H27.3825V57.3977H27.4535C27.5813 57.116 27.7731 56.8923 28.0288 56.7266C28.2868 56.5585 28.6301 56.4744 29.0586 56.4744C29.4303 56.4744 29.7558 56.549 30.0352 56.6982C30.3145 56.8449 30.5311 57.071 30.685 57.3764C30.8413 57.6795 30.9194 58.0653 30.9194 58.5341V62H30.0813V58.5909C30.0813 58.1577 29.9689 57.8227 29.744 57.5859C29.5214 57.3468 29.2125 57.2273 28.8171 57.2273C28.5425 57.2273 28.2963 57.2853 28.0785 57.4013C27.863 57.5173 27.6926 57.6866 27.5671 57.9091C27.444 58.1316 27.3825 58.4015 27.3825 58.7188ZM32.4526 62V56.5455H33.2907V62H32.4526ZM32.8787 55.6364C32.7154 55.6364 32.5745 55.5807 32.4561 55.4695C32.3401 55.3582 32.2821 55.2244 32.2821 55.0682C32.2821 54.9119 32.3401 54.7782 32.4561 54.6669C32.5745 54.5556 32.7154 54.5 32.8787 54.5C33.0421 54.5 33.1818 54.5556 33.2978 54.6669C33.4161 54.7782 33.4753 54.9119 33.4753 55.0682C33.4753 55.2244 33.4161 55.3582 33.2978 55.4695C33.1818 55.5807 33.0421 55.6364 32.8787 55.6364ZM35.6637 58.7188V62H34.8256V56.5455H35.6353V57.3977H35.7063C35.8342 57.1207 36.0283 56.8982 36.2887 56.7301C36.5491 56.5597 36.8853 56.4744 37.2972 56.4744C37.6665 56.4744 37.9897 56.5502 38.2667 56.7017C38.5437 56.8509 38.7591 57.0781 38.913 57.3835C39.0669 57.6866 39.1438 58.0701 39.1438 58.5341V62H38.3058V58.5909C38.3058 58.1624 38.1945 57.8286 37.9719 57.5895C37.7494 57.348 37.444 57.2273 37.0558 57.2273C36.7882 57.2273 36.5491 57.2853 36.3384 57.4013C36.1301 57.5173 35.9656 57.6866 35.8448 57.9091C35.7241 58.1316 35.6637 58.4015 35.6637 58.7188ZM42.877 64.1591C42.4721 64.1591 42.1241 64.107 41.8329 64.0028C41.5417 63.901 41.2991 63.7661 41.1049 63.598C40.9132 63.4323 40.7605 63.2547 40.6468 63.0653L41.3145 62.5966C41.3902 62.696 41.4861 62.8097 41.6021 62.9375C41.7181 63.0677 41.8767 63.1802 42.0779 63.2749C42.2815 63.3719 42.5479 63.4205 42.877 63.4205C43.3173 63.4205 43.6807 63.3139 43.9672 63.1009C44.2536 62.8878 44.3968 62.554 44.3968 62.0994V60.9915H44.3258C44.2643 61.0909 44.1767 61.214 44.063 61.3608C43.9518 61.5052 43.7908 61.6342 43.5801 61.7479C43.3717 61.8591 43.09 61.9148 42.7349 61.9148C42.2946 61.9148 41.8992 61.8106 41.5488 61.6023C41.2008 61.3939 40.925 61.0909 40.7214 60.6932C40.5202 60.2955 40.4196 59.8125 40.4196 59.2443C40.4196 58.6856 40.5178 58.1991 40.7143 57.7848C40.9108 57.3681 41.1842 57.0462 41.5346 56.8189C41.885 56.5893 42.2898 56.4744 42.7491 56.4744C43.1042 56.4744 43.3859 56.5336 43.5943 56.652C43.805 56.768 43.966 56.9006 44.0772 57.0497C44.1909 57.1965 44.2785 57.3172 44.34 57.4119H44.4252V56.5455H45.2349V62.1562C45.2349 62.625 45.1284 63.0062 44.9153 63.2997C44.7046 63.5956 44.4205 63.8123 44.063 63.9496C43.7079 64.0893 43.3126 64.1591 42.877 64.1591ZM42.8485 61.1619C43.1847 61.1619 43.4688 61.085 43.7008 60.9311C43.9328 60.7772 44.1092 60.5559 44.2299 60.267C44.3507 59.9782 44.411 59.6326 44.411 59.2301C44.411 58.8371 44.3519 58.4903 44.2335 58.1896C44.1151 57.889 43.9399 57.6534 43.7079 57.483C43.4759 57.3125 43.1895 57.2273 42.8485 57.2273C42.4934 57.2273 42.1975 57.3172 41.9608 57.4972C41.7264 57.6771 41.55 57.9186 41.4316 58.2216C41.3156 58.5246 41.2576 58.8608 41.2576 59.2301C41.2576 59.6089 41.3168 59.9439 41.4352 60.2351C41.5559 60.5239 41.7335 60.7512 41.9679 60.9169C42.2046 61.0803 42.4982 61.1619 42.8485 61.1619Z" fill="#A6A6A6"/>
<defs>
<filter id="filter0_b_112_98" x="-23" y="-25" width="94" height="94" filterUnits="userSpaceOnUse" color-interpolation-filters="sRGB">
<feFlood flood-opacity="0" result="BackgroundImageFix"/>
<feGaussianBlur in="BackgroundImageFix" stdDeviation="12.5"/>
<feComposite in2="SourceAlpha" operator="in" result="effect1_backgroundBlur_112_98"/>
<feBlend mode="normal" in="SourceGraphic" in2="effect1_backgroundBlur_112_98" result="shape"/>
</filter>
</defs>
</svg>
